<svg width="23" height="24" viewBox="0 0 23 24" fill="none" xmlns="http://www.w3.org/2000/svg">
<g clip-path="url(#clip0)">
<path d="M11.8479 14.947C11.8479 13.099 11.0055 11.733 9.26516 11.221C10.535 10.59 11.1972 9.634 11.1972 8.147C11.1972 5.215 9.09649 4.5 6.67287 4.5H-7.62939e-06V19.221H6.85974C9.43191 19.221 11.8479 17.938 11.8479 14.947ZM3.11074 7.013H6.02983C7.15203 7.013 8.16212 7.341 8.16212 8.695C8.16212 9.945 7.37628 10.448 6.26462 10.448H3.11074V7.013ZM3.10978 16.721V12.667H6.50037C7.86983 12.667 8.73616 13.261 8.73616 14.769C8.73616 16.256 7.70212 16.721 6.43616 16.721H3.10978Z" fill="black"/>
<path d="M18.0128 19.5C20.4604 19.5 22.0455 18.353 22.8083 15.915H20.3243C20.057 16.825 18.9549 17.306 18.1 17.306C16.4507 17.306 15.5844 16.301 15.5844 14.593H22.976C23.2099 11.175 21.3852 8.26196 18.0119 8.26196C14.8887 8.26196 12.7688 10.704 12.7688 13.903C12.7688 17.223 14.7775 19.5 18.0128 19.5ZM17.9247 10.474C19.3382 10.474 20.0493 11.338 20.1681 12.751H15.5882C15.6812 11.35 16.5753 10.474 17.9247 10.474Z" fill="black"/>
<path d="M15.0142 5.27319H20.7527V6.72319H15.0142V5.27319Z" fill="black"/>
</g>
<defs>
<clipPath id="clip0">
<rect width="23" height="24" fill="white"/>
</clipPath>
</defs>
</svg>
