<svg width="19" height="19" viewBox="0 0 19 19" fill="none" xmlns="http://www.w3.org/2000/svg">
<path d="M0.616984 18.1779H3.08701C3.42778 18.1779 3.704 17.9017 3.704 17.5609V6.76444C3.704 6.42364 3.42778 6.14746 3.08701 6.14746H0.616984C0.276182 6.14746 0 6.42364 0 6.76444V17.5609C0 17.9016 0.276182 18.1779 0.616984 18.1779Z" fill="black"/>
<path d="M0.616984 4.24939H3.08701C3.42778 4.24939 3.704 3.97317 3.704 3.63241V1.43901C3.704 1.09824 3.42778 0.822021 3.08701 0.822021H0.616984C0.276182 0.822021 0 1.09824 0 1.43901V3.63241C0 3.97317 0.276182 4.24939 0.616984 4.24939Z" fill="black"/>
<path d="M18.0706 7.39971C17.7235 6.94283 17.2117 6.5671 16.535 6.2726C15.8583 5.97831 15.1113 5.83105 14.294 5.83105C12.635 5.83105 11.2291 6.46423 10.0766 7.73081C9.84725 7.98283 9.68051 7.92773 9.68051 7.58693V6.76444C9.68051 6.42363 9.40426 6.14745 9.0635 6.14745H6.85707C6.51627 6.14745 6.24008 6.42363 6.24008 6.76444V17.5609C6.24008 17.9017 6.5163 18.1779 6.85707 18.1779H9.3271C9.6679 18.1779 9.94408 17.9017 9.94408 17.5609V13.8062C9.94408 12.2419 10.0385 11.1698 10.2274 10.5898C10.4163 10.0098 10.7657 9.54413 11.2754 9.1926C11.7851 8.84107 12.3607 8.66523 13.0023 8.66523C13.5031 8.66523 13.9316 8.78828 14.2875 9.03442C14.6435 9.28053 14.9005 9.62528 15.0587 10.0692C15.217 10.513 15.296 11.4906 15.296 13.0022V17.5609C15.296 17.9016 15.5722 18.1779 15.913 18.1779H18.383C18.7238 18.1779 19 17.9016 19 17.5609V11.4466C19 10.3658 18.9318 9.53529 18.7957 8.95533C18.6597 8.37536 18.4179 7.85682 18.0706 7.39971Z" fill="black"/>
</svg>
